<svg width="64" height="64" viewBox="0 0 64 64" fill="none" xmlns="http://www.w3.org/2000/svg">
<path d="M14 23C14 20.7909 15.7909 19 18 19H55C57.2091 19 59 20.7909 59 23V55C59 57.2091 57.2091 59 55 59H18C15.7909 59 14 57.2091 14 55V23Z" fill="#BAE6FD"/>
<path fill-rule="evenodd" clip-rule="evenodd" d="M17 5H21V9H41V5H45V9H53C55.2091 9 57 10.7909 57 13V53C57 55.2091 55.2091 57 53 57H9C6.79086 57 5 55.2091 5 53V13C5 10.7909 6.79086 9 9 9H17V5ZM17 13H11C9.89543 13 9 13.8954 9 15V23H53V15C53 13.8954 52.1046 13 51 13H45V17H41V13H21V17H17V13ZM53 25H9V51C9 52.1046 9.89543 53 11 53H51C52.1046 53 53 52.1046 53 51V25Z" fill="#0284C7"/>
<path d="M16 33C16 31.8954 16.8954 31 18 31H20C21.1046 31 22 31.8954 22 33V35C22 36.1046 21.1046 37 20 37H18C16.8954 37 16 36.1046 16 35V33Z" fill="#0284C7"/>
<path d="M40 33C40 31.8954 40.8954 31 42 31H44C45.1046 31 46 31.8954 46 33V35C46 36.1046 45.1046 37 44 37H42C40.8954 37 40 36.1046 40 35V33Z" fill="#0284C7"/>
<path d="M28 33C28 31.8954 28.8954 31 30 31H32C33.1046 31 34 31.8954 34 33V35C34 36.1046 33.1046 37 32 37H30C28.8954 37 28 36.1046 28 35V33Z" fill="#0284C7"/>
<path d="M16 43C16 41.8954 16.8954 41 18 41H20C21.1046 41 22 41.8954 22 43V45C22 46.1046 21.1046 47 20 47H18C16.8954 47 16 46.1046 16 45V43Z" fill="#0284C7"/>
<path d="M40 43C40 41.8954 40.8954 41 42 41H44C45.1046 41 46 41.8954 46 43V45C46 46.1046 45.1046 47 44 47H42C40.8954 47 40 46.1046 40 45V43Z" fill="#0284C7"/>
<path d="M28 43C28 41.8954 28.8954 41 30 41H32C33.1046 41 34 41.8954 34 43V45C34 46.1046 33.1046 47 32 47H30C28.8954 47 28 46.1046 28 45V43Z" fill="#0284C7"/>
</svg>
